<svg width="40" height="46" viewBox="0 0 40 46" fill="none" xmlns="http://www.w3.org/2000/svg">
<path d="M0 5C0 2.23857 2.23858 0 5 0H35C37.7614 0 40 2.23858 40 5V28.7828C40 30.4068 39.2112 31.9297 37.8848 32.8667L22.8847 43.4623C21.1555 44.6838 18.8445 44.6838 17.1152 43.4623L2.11525 32.8667C0.788765 31.9297 0 30.4068 0 28.7828V5Z" fill="#4718CD"/>
<path d="M12.8667 12.1333C12.6667 12.8 12 13.8667 11.5333 14.4667C10.5333 15.6 10.8667 17 12 17C12.3333 17 13.0667 16.0667 13.6667 15C15 12.4667 16.6 12.3333 16.4667 14.8C16.4 16.0667 16.6667 16.6667 17.3333 16.6667C17.9333 16.6667 18.4 15.9333 18.5333 14.8C18.6667 13.5333 19.1333 13 20 13C20.8667 13 21.3333 13.5333 21.4667 14.8C21.6 15.9333 22.0667 16.6667 22.6667 16.6667C23.3333 16.6667 23.6 16.0667 23.5333 14.8C23.4 12.3333 25 12.4667 26.3333 15C26.9333 16.0667 27.6667 17 28 17C29.1333 17 29.4667 15.6 28.4667 14.4667C28 13.8667 27.3333 12.8 27.1333 12.1333C26.7333 11.1333 25.8 11 20 11C14.2 11 13.2667 11.1333 12.8667 12.1333Z" fill="white"/>
<path d="M12.1331 22.4667L12.3331 26.6667L16.8664 26.8667L21.3331 27.0667V23.6667C21.3331 20.4 21.3998 20.3333 23.3331 20.3333C25.2664 20.3333 25.3331 20.4 25.3331 23.7333C25.3331 26.6 25.5331 27.0667 26.5331 26.8667C27.4664 26.6667 27.7331 25.8 27.8664 22.4667L28.0664 18.3333H19.9998H11.9331L12.1331 22.4667ZM18.6664 22.3333C18.6664 24.1333 18.4664 24.3333 16.6664 24.3333C14.8664 24.3333 14.6664 24.1333 14.6664 22.3333C14.6664 20.5333 14.8664 20.3333 16.6664 20.3333C18.4664 20.3333 18.6664 20.5333 18.6664 22.3333Z" fill="white"/>
</svg>
