<svg width="792" height="457" viewBox="0 0 792 457" fill="none" xmlns="http://www.w3.org/2000/svg">
<path fill-rule="evenodd" clip-rule="evenodd" d="M235.751 111.726C245.462 119.843 250.897 131.148 252.056 145.642H296.533C297.462 155.693 300.169 165.161 304.656 174.048C310.313 185.254 317.929 196.624 327.503 208.156C330.112 211.299 332.802 214.538 335.573 217.875C333.031 219.646 330.546 221.418 328.118 223.189C319.406 216.335 309.343 210.126 297.93 204.561C280.392 196.009 259.303 189.124 234.663 183.907L198.138 176.08C187.558 173.906 178.426 171.442 170.744 168.688C163.063 165.934 156.758 162.89 151.83 159.556C146.902 156.078 143.278 152.237 140.959 148.034C138.785 143.685 137.843 138.83 138.133 133.467C138.278 126.945 140.234 121.147 144.003 116.074C147.771 111.001 153.569 107.015 161.396 104.116C169.367 101.073 179.586 99.5508 192.051 99.5508C211.618 99.5508 226.184 103.609 235.751 111.726ZM353.953 250.692C350.2 245.109 345.875 239.806 340.978 234.781C337.08 230.731 332.794 226.868 328.118 223.189C318.881 229.928 310.462 236.667 302.861 243.406C292.416 252.654 284.202 262.717 278.218 273.597C272.343 284.368 269.406 296.716 269.406 310.642C269.406 328.702 273.703 344.75 282.298 358.784C290.893 372.819 303.133 383.862 319.017 391.913C327.434 396.179 336.707 399.315 346.835 401.321C332.716 418.427 313.66 431.689 289.669 441.105C262.854 451.685 230.605 456.976 192.92 456.976C154.221 456.976 120.45 451.25 91.6066 439.8C62.9082 428.35 40.5873 410.739 24.6438 386.969C8.84522 363.054 0.873456 332.471 0.728516 295.221H115.522C116.247 308.846 119.653 320.296 125.74 329.572C131.828 338.849 140.379 345.878 151.395 350.661C162.555 355.444 175.817 357.836 191.181 357.836C204.081 357.836 214.879 356.242 223.575 353.053C232.272 349.864 238.867 345.443 243.36 339.791C247.853 334.138 250.172 327.688 250.317 320.441C250.172 313.629 247.926 307.686 243.577 302.613C239.374 297.395 232.417 292.757 222.706 288.699C212.995 284.496 199.878 280.582 183.354 276.959L139.002 267.393C99.5783 258.841 68.4885 244.564 45.7327 224.563C23.1219 204.416 11.889 176.949 12.0339 142.164C11.889 113.9 19.4259 89.1876 34.6447 68.0262C50.0085 46.7198 71.2424 30.1241 98.3464 18.2389C125.595 6.35372 156.83 0.411133 192.051 0.411133C227.996 0.411133 259.086 6.42619 285.32 18.4563C310.666 30.0789 330.397 46.3012 344.514 67.1233C340.982 68.3761 337.597 69.8558 334.357 71.5623C322.281 77.8725 312.87 86.7394 306.125 98.163C299.488 109.478 296.17 122.642 296.17 137.656C296.17 140.358 296.291 143.02 296.533 145.642H335.951C336.86 151.088 338.776 156.586 341.701 162.135C346.053 170.077 351.547 178.237 358.184 186.614C360.638 189.624 363.122 192.662 365.635 195.729L387.559 179.434C397.024 173.232 404.585 166.596 410.243 159.524C416.009 152.452 418.892 143.205 418.892 131.781C418.892 123.295 415.138 115.081 407.631 107.139C400.233 99.1965 390.496 95.2255 378.42 95.2255C371.844 95.2255 365.856 96.5321 360.456 99.1453C356.92 88.5356 352.094 78.5974 345.978 69.3306C345.497 68.5892 345.009 67.8534 344.514 67.1233C354.267 63.6637 365.133 61.9338 377.114 61.9338C393.605 61.9338 407.831 65.0959 419.789 71.4201V201.472C417.818 203.066 415.778 204.642 413.67 206.198L389.194 224.434L419.789 261.799V319.403L359.489 246.67C359.472 246.649 359.454 246.628 359.437 246.607L353.953 250.692ZM365.318 369.574C361.875 378.637 357.385 387.044 351.848 394.796C350.253 397.03 348.582 399.205 346.835 401.321C355.82 403.1 365.478 403.989 375.809 403.989C390.29 403.989 404.951 401.581 419.789 396.763V451.758H540.67V304.787H582.506L660.682 451.758H791.998L701.575 285.746C724.674 274.662 742.785 258.906 755.908 238.477C770.112 216.591 777.214 189.704 777.214 157.817C777.214 126.22 770.33 99.116 756.56 76.5052C742.791 53.8944 723.514 36.5739 698.729 24.5438C673.944 12.5137 645.028 6.49866 611.981 6.49866H419.789V71.4201C419.98 71.5211 420.171 71.6229 420.361 71.7255C432.437 78.1445 441.739 86.685 448.267 97.347C454.795 107.9 458.059 119.378 458.059 131.781C458.059 147.774 454.087 161.646 446.145 173.396C439.425 183.339 430.639 192.697 419.789 201.472V261.799L461.841 313.156C463.732 309.486 465.463 305.656 467.034 301.666C472.8 287.305 475.684 271.149 475.684 253.198H512.892C512.892 275.392 510.335 293.507 505.222 307.541C500.108 321.576 494.342 332.564 487.923 340.507C487.299 341.279 486.687 342.032 486.086 342.766L532.475 399.42H486.128L462.549 370.979C452.232 381.615 439.53 389.681 424.44 395.177C422.888 395.732 421.338 396.261 419.789 396.763V357.726C426.743 353.716 433.273 348.818 439.38 343.033L419.789 319.403V357.726C417.054 359.304 414.252 360.745 411.385 362.048C399.417 367.379 387.123 370.045 374.503 370.045C371.346 370.045 368.284 369.888 365.318 369.574ZM365.318 369.574C370.888 354.912 373.717 338.535 373.807 320.441C373.662 303.483 370.908 287.829 365.545 273.48C362.617 265.428 358.753 257.832 353.953 250.692L347.086 255.809C332.072 266.906 321.9 277.677 316.569 288.121C311.238 298.566 308.572 306.073 308.572 310.642C308.572 321.086 311.292 330.824 316.732 339.854C322.172 348.884 329.842 356.173 339.743 361.722C347.288 365.951 355.813 368.568 365.318 369.574ZM360.456 99.1453C365.215 113.427 367.636 128.926 367.719 145.642H335.951C335.541 143.187 335.336 140.743 335.336 138.309C335.336 131.346 337.132 124.6 340.722 118.073C344.421 111.436 349.48 105.996 355.899 101.753C357.368 100.774 358.887 99.9044 360.456 99.1453ZM540.67 210.866H583.283C597.487 210.866 609.59 209.126 619.591 205.648C629.737 202.024 637.491 196.299 642.854 188.472C648.362 180.645 651.115 170.427 651.115 157.817C651.115 145.062 648.362 134.699 642.854 126.727C637.491 118.611 629.737 112.668 619.591 108.9C609.59 104.986 597.487 103.029 583.283 103.029H540.67V210.866Z" fill="#4718CD"/>
</svg>
