<svg width="56" height="50" viewBox="0 0 56 50" fill="none" xmlns="http://www.w3.org/2000/svg">
<path d="M18.1232 19.3548C18.045 18.3773 17.6784 17.6149 17.0235 17.0674C16.3783 16.52 15.3959 16.2463 14.0762 16.2463C13.2356 16.2463 12.5464 16.349 12.0088 16.5543C11.4809 16.7498 11.0899 17.0186 10.8358 17.3607C10.5816 17.7028 10.4497 18.0938 10.4399 18.5337C10.4203 18.8954 10.4839 19.2229 10.6305 19.5161C10.7869 19.7996 11.0313 20.0587 11.3636 20.2933C11.696 20.5181 12.1212 20.7234 12.6393 20.9091C13.1574 21.0948 13.7732 21.261 14.4868 21.4076L16.9501 21.9355C18.6119 22.2874 20.0342 22.7517 21.217 23.3284C22.3998 23.9052 23.3675 24.5846 24.1202 25.3666C24.8729 26.1388 25.4252 27.0088 25.7771 27.9765C26.1388 28.9443 26.3245 30 26.3343 31.1437C26.3245 33.1183 25.8309 34.7898 24.8534 36.1584C23.8759 37.5269 22.478 38.5679 20.6598 39.2815C18.8514 39.9951 16.6764 40.3519 14.1349 40.3519C11.5249 40.3519 9.24731 39.9658 7.30205 39.1935C5.36657 38.4213 3.86119 37.2336 2.78592 35.6305C1.72043 34.0176 1.1828 31.955 1.17302 29.4428H8.91496C8.96383 30.3617 9.19355 31.1339 9.60411 31.7595C10.0147 32.3851 10.5914 32.8592 11.3343 33.1818C12.087 33.5044 12.9814 33.6657 14.0176 33.6657C14.8876 33.6657 15.6158 33.5582 16.2023 33.3431C16.7889 33.1281 17.2336 32.8299 17.5367 32.4487C17.8397 32.0674 17.9961 31.6325 18.0059 31.1437C17.9961 30.6843 17.8446 30.2835 17.5513 29.9413C17.2678 29.5894 16.7986 29.2766 16.1437 29.0029C15.4888 28.7195 14.6041 28.4555 13.4897 28.2111L10.4985 27.566C7.83969 26.9892 5.74291 26.0264 4.20821 24.6774C2.68328 23.3187 1.92571 21.4663 1.93548 19.1202C1.92571 17.2141 2.43402 15.5474 3.46041 14.1202C4.49658 12.6833 5.92864 11.564 7.7566 10.7625C9.59433 9.9609 11.7009 9.56012 14.0762 9.56012C16.5005 9.56012 18.5973 9.96579 20.3666 10.7771C22.1359 11.5885 23.4995 12.7322 24.4575 14.2082C25.4252 15.6745 25.914 17.39 25.9238 19.3548H18.1232Z" fill="#4718CD"/>
<path d="M29.4355 40V9.97067H42.3974C44.6261 9.97067 46.5762 10.3763 48.2478 11.1877C49.9194 11.999 51.2195 13.1672 52.1481 14.6921C53.0767 16.217 53.5411 18.045 53.5411 20.176C53.5411 22.3265 53.0621 24.1398 52.1041 25.6158C51.1559 27.0919 49.8216 28.2063 48.1012 28.9589C46.3905 29.7116 44.3915 30.088 42.1041 30.088H34.3622V23.7537H40.4619C41.4198 23.7537 42.2361 23.6364 42.9106 23.4018C43.5948 23.1574 44.1178 22.7713 44.4795 22.2434C44.8509 21.7155 45.0367 21.0264 45.0367 20.176C45.0367 19.3157 44.8509 18.6168 44.4795 18.0792C44.1178 17.5318 43.5948 17.131 42.9106 16.8768C42.2361 16.6129 41.4198 16.4809 40.4619 16.4809H37.588V40H29.4355ZM47.0308 26.217L54.5381 40H45.6818L38.3504 26.217H47.0308Z" fill="black"/>
<path d="M26.5555 36.7598C25.0733 36.7598 23.7966 36.4883 22.7253 35.9453C21.6541 35.4024 20.8286 34.6576 20.2489 33.7111C19.6693 32.7645 19.3795 31.6823 19.3795 30.4642C19.3795 29.525 19.5776 28.6922 19.9738 27.9658C20.3774 27.2321 20.9313 26.5534 21.6357 25.9297C22.3475 25.2987 23.1656 24.6676 24.0901 24.0366L27.348 21.6152C27.9863 21.197 28.4963 20.7494 28.8778 20.2725C29.2667 19.7955 29.4611 19.1719 29.4611 18.4014C29.4611 17.8291 29.208 17.2751 28.7017 16.7395C28.2028 16.2039 27.5461 15.936 26.7316 15.936C26.1593 15.936 25.653 16.0828 25.2127 16.3763C24.7798 16.6624 24.4386 17.0293 24.1892 17.4769C23.947 17.9172 23.826 18.3721 23.826 18.8417C23.826 19.37 23.969 19.9056 24.2552 20.4486C24.5487 20.9842 24.9192 21.5345 25.3668 22.0995C25.8218 22.6572 26.2914 23.2295 26.7756 23.8165L37.1215 36.4516H33.9957L25.4549 26.1498C24.6624 25.1959 23.9434 24.3301 23.2977 23.5523C22.652 22.7746 22.1383 22.0078 21.7568 21.252C21.3752 20.4963 21.1845 19.6781 21.1845 18.7976C21.1845 17.7851 21.4083 16.8972 21.8559 16.1341C22.3108 15.3637 22.9455 14.7657 23.7599 14.3401C24.5817 13.9072 25.5429 13.6908 26.6436 13.6908C27.7735 13.6908 28.7457 13.9109 29.5602 14.3511C30.3747 14.784 31.002 15.36 31.4423 16.0791C31.8825 16.7908 32.1026 17.565 32.1026 18.4014C32.1026 19.48 31.8348 20.4156 31.2992 21.208C30.7635 22.0005 30.0335 22.7379 29.1089 23.4203L24.6184 26.7661C23.6058 27.5146 22.9198 28.241 22.5603 28.9454C22.2007 29.6498 22.0209 30.1561 22.0209 30.4642C22.0209 31.1686 22.2044 31.8253 22.5713 32.4343C22.9381 33.0434 23.4554 33.535 24.1231 33.9092C24.7908 34.2834 25.5723 34.4705 26.4675 34.4705C27.3186 34.4705 28.1477 34.2907 28.9549 33.9312C29.762 33.5643 30.4921 33.036 31.1451 32.3463C31.8055 31.6566 32.3264 30.8274 32.708 29.8589C33.0969 28.8903 33.2913 27.8007 33.2913 26.59H35.8007C35.8007 28.0869 35.6283 29.3086 35.2834 30.2551C34.9386 31.2017 34.5497 31.9427 34.1168 32.4784C33.6839 33.014 33.3353 33.4139 33.0712 33.678C32.9831 33.7881 32.9024 33.8982 32.829 34.0082C32.7557 34.1183 32.675 34.2284 32.5869 34.3384C31.8605 35.1529 30.9433 35.7619 29.8354 36.1655C28.7274 36.5617 27.6341 36.7598 26.5555 36.7598Z" fill="white"/>
</svg>
