<svg width="1080" height="472" viewBox="0 0 1080 472" fill="none" xmlns="http://www.w3.org/2000/svg">
<path d="M110.149 356.01C90.9198 356.01 72.3463 353.825 54.4283 349.455C36.5104 345.085 21.7608 339.403 10.1797 332.411L35.09 276.035C46.0156 282.372 58.143 287.507 71.4722 291.44C85.02 295.155 98.1307 297.012 110.804 297.012C118.234 297.012 308.394 296.575 312.545 295.701C316.916 294.608 320.084 293.188 322.051 291.44C324.017 289.473 325.001 287.179 325.001 284.557C325.001 280.405 322.706 277.128 318.117 274.724C313.529 272.32 123.041 270.354 115.393 268.824C107.964 267.076 99.7695 265.328 90.8105 263.58C81.8516 261.613 72.7833 259.1 63.6058 256.041C54.6468 252.982 46.3434 248.94 38.6955 243.914C31.2661 238.888 25.257 232.333 20.6683 224.248C16.0795 215.944 13.7851 205.674 13.7851 193.438C13.7851 179.234 17.7183 166.342 25.5848 154.761C33.6697 142.961 45.5786 133.565 61.3114 126.573C77.2628 119.581 97.0381 116.084 120.637 116.084C136.152 116.084 335.817 117.723 350.894 121.001C365.971 124.279 379.519 129.304 391.537 136.078L368.266 192.126C356.903 186.445 345.868 182.184 335.161 179.344C324.673 176.503 130.033 175.083 119.982 175.083C112.552 175.083 106.653 175.738 102.282 177.049C97.9122 178.36 94.7437 180.108 92.7771 182.293C91.029 184.479 90.155 186.882 90.155 189.504C90.155 193.438 92.4494 196.606 97.0381 199.01C101.627 201.195 107.636 203.052 115.065 204.582C122.713 206.111 315.386 207.75 324.345 209.498C333.522 211.246 342.591 213.65 351.55 216.709C360.509 219.768 368.703 223.811 376.132 228.836C383.78 233.862 389.898 240.418 394.487 248.502C399.076 256.587 401.37 266.639 401.37 278.657C401.37 292.642 397.328 305.534 389.243 317.334C381.377 328.915 369.577 338.311 353.844 345.522C338.111 352.514 133.967 356.01 110.149 356.01Z" fill="#4718CD"/>
<path d="M509.936 356.01C491.581 356.01 475.192 353.17 460.771 347.488C446.349 341.589 434.986 333.613 426.683 323.561C418.379 313.51 414.228 302.147 414.228 289.473C414.228 276.8 416.959 265.656 422.422 256.041C428.103 246.208 436.734 237.468 448.315 229.82C460.115 221.953 474.974 214.633 492.892 207.859C503.817 203.708 512.339 199.884 518.458 196.387C524.795 192.891 529.274 189.614 531.896 186.554C534.518 183.277 535.829 180.108 535.829 177.049C535.829 173.553 534.628 170.712 532.224 168.527C530.039 166.342 526.652 165.25 522.063 165.25C517.037 165.25 513.104 166.561 510.264 169.183C507.641 171.586 506.33 174.646 506.33 178.36C506.33 180.764 506.877 183.167 507.969 185.571C509.28 187.975 511.684 190.925 515.18 194.421C518.676 197.699 523.593 202.069 529.93 207.532L650.548 310.123L610.888 355.027L471.915 235.72C464.485 229.601 458.367 223.483 453.56 217.365C448.752 211.028 445.147 204.691 442.743 198.354C440.34 192.017 439.138 185.68 439.138 179.344C439.138 167.107 442.525 156.4 449.299 147.222C456.291 137.826 465.906 130.506 478.142 125.262C490.597 120.018 505.128 117.395 521.735 117.395C537.031 117.395 550.36 119.799 561.723 124.606C573.086 129.195 581.935 135.86 588.272 144.6C594.609 153.341 597.777 163.611 597.777 175.41C597.777 185.899 595.046 195.404 589.583 203.926C584.339 212.448 576.145 220.205 565.001 227.198C554.075 234.19 540.2 240.855 523.374 247.191C514.634 250.469 507.532 253.856 502.069 257.352C496.607 260.848 492.673 264.563 490.27 268.496C487.866 272.211 486.664 276.472 486.664 281.279C486.664 284.775 487.757 288.053 489.942 291.112C492.346 294.171 495.623 296.575 499.775 298.323C504.145 300.071 509.389 300.945 515.508 300.945C527.307 300.945 538.342 297.886 548.612 291.768C559.101 285.431 568.06 276.363 575.489 264.563C583.137 252.763 588.381 238.669 591.222 222.281L650.548 239.981C645.522 262.487 636.345 282.481 623.016 299.962C609.905 317.443 593.626 331.209 574.178 341.261C554.949 351.094 533.535 356.01 509.936 356.01Z" fill="#4718CD"/>
<path d="M679.177 350.766V121.329H960.346C981.761 121.329 1000.22 124.825 1015.74 131.817C1031.47 138.81 1043.6 148.861 1052.12 161.972C1060.64 174.864 1064.9 190.16 1064.9 207.859C1064.9 225.559 1060.64 240.855 1052.12 253.747C1043.6 266.42 1031.47 276.144 1015.74 282.918C1000.22 289.692 981.761 293.079 960.346 293.079H722.114L756.53 261.285V350.766H679.177ZM987.223 350.766L912.401 267.185H1012.79L1069.82 350.766H987.223ZM756.53 269.807L722.114 234.736H955.43C966.137 234.736 974.004 232.333 979.029 227.525C984.274 222.718 986.896 216.163 986.896 207.859C986.896 199.556 984.274 193.001 979.029 188.193C974.004 183.386 966.137 180.982 955.43 180.982H722.114L756.53 145.911V269.807Z" fill="#4718CD"/>
<path d="M10.1797 389.224H1068.6V471.166H10.1797V389.224Z" fill="#4718CD"/>
<path d="M10.1797 0H1068.6V81.9419H10.1797V0Z" fill="#4718CD"/>
</svg>
